<svg width="11" height="10" viewBox="0 0 11 10" fill="none" xmlns="http://www.w3.org/2000/svg">
<path fill-rule="evenodd" clip-rule="evenodd" d="M10.7522 9.75576C10.5936 9.91215 10.3784 10 10.154 10C9.92962 10 9.71443 9.91215 9.55575 9.75576L5.32484 5.58474C5.16621 5.42831 5.07709 5.21616 5.07709 4.99496C5.07709 4.77376 5.16621 4.56162 5.32484 4.40518L9.55575 0.23417C9.71534 0.0822139 9.92909 -0.00186873 10.151 3.19481e-05C10.3728 0.00193262 10.5851 0.089664 10.7419 0.244332C10.8988 0.399 10.9878 0.608228 10.9898 0.826954C10.9917 1.04568 10.9064 1.2564 10.7522 1.41373L7.11959 4.99496L10.7522 8.57619C10.9109 8.73263 11 8.94478 11 9.16598C11 9.38718 10.9109 9.59932 10.7522 9.75576ZM5.67516 9.75576C5.51648 9.91215 5.30129 10 5.07691 10C4.85253 10 4.63734 9.91215 4.47866 9.75576L0.24775 5.58474C0.0891159 5.42831 0 5.21616 0 4.99496C0 4.77376 0.0891159 4.56162 0.24775 4.40518L4.47866 0.23417C4.63825 0.0822139 4.852 -0.00186873 5.07386 3.19481e-05C5.29573 0.00193262 5.50796 0.089664 5.66485 0.244332C5.82174 0.399 5.91073 0.608228 5.91266 0.826954C5.91459 1.04568 5.8293 1.2564 5.67516 1.41373L2.0425 4.99496L5.67516 8.57619C5.83379 8.73263 5.92291 8.94478 5.92291 9.16598C5.92291 9.38718 5.83379 9.59932 5.67516 9.75576Z" fill="white"/>
</svg>
