<svg width="36" height="33" viewBox="0 0 36 33" fill="none" xmlns="http://www.w3.org/2000/svg">
<foreignObject x="-5" y="-5" width="46" height="43"><div xmlns="http://www.w3.org/1999/xhtml" style="backdrop-filter:blur(2.5px);clip-path:url(#bgblur_0_7806_1737_clip_path);height:100%;width:100%"></div></foreignObject><path data-figma-bg-blur-radius="5" d="M35.8783 9.12163L33.7752 24.393C33.7228 25.1999 33.4987 25.9856 33.1183 26.696C32.738 27.4065 32.2105 28.0247 31.5722 28.508C31.4918 28.5646 31.398 28.5982 31.3004 28.6053C31.2029 28.6124 31.1053 28.5927 31.0179 28.5483C30.9304 28.5039 30.8563 28.4364 30.8034 28.3529C30.7504 28.2694 30.7206 28.173 30.7169 28.0738V12.7828C30.8077 11.7858 30.681 10.7808 30.346 9.83912C30.0109 8.89747 29.4756 8.04237 28.7782 7.33463C28.0808 6.6269 27.2385 6.08391 26.311 5.74429C25.3836 5.40467 24.3938 5.27676 23.4122 5.36966H6.91697C6.3912 5.36966 6.37893 4.88909 6.41573 4.67551C6.56369 3.22763 7.26308 1.89585 8.3646 0.964464C8.98652 0.541114 9.68561 0.248517 10.4207 0.103926C11.1557 -0.0406642 11.9118 -0.0343206 12.6444 0.122583L31.1533 2.7568C31.9025 2.81214 32.6332 3.01924 33.3023 3.36588C33.9714 3.71253 34.5654 4.19171 35.0493 4.77518C35.467 5.4064 35.7556 6.11637 35.898 6.863C36.0404 7.60962 36.0337 8.37769 35.8783 9.12163ZM28.0828 12.7828V28.2108C28.1731 28.8552 28.1146 29.5122 27.9119 30.1297C27.7092 30.7472 27.3678 31.3083 26.9147 31.7688C26.4617 32.2292 25.9094 32.5764 25.3015 32.7827C24.6936 32.9891 24.0468 33.049 23.4122 32.9577H4.71574C4.08079 33.05 3.43341 32.9908 2.82489 32.7848C2.21637 32.5789 1.66344 32.2319 1.20989 31.7713C0.756341 31.3106 0.414642 30.7491 0.211863 30.1311C0.00908483 29.5131 -0.0492014 28.8556 0.0416223 28.2108V12.7828C-0.0485967 12.1383 0.0101421 11.4812 0.21319 10.8637C0.416239 10.2462 0.758023 9.68509 1.21149 9.2249C1.66497 8.76471 2.21768 8.41802 2.82589 8.21227C3.4341 8.00652 4.08112 7.94736 4.71574 8.03947H23.4122C24.0465 7.94836 24.6929 8.00824 25.3005 8.2144C25.9081 8.42056 26.4602 8.76734 26.9131 9.22736C27.3661 9.68739 27.7076 10.2481 27.9106 10.8651C28.1136 11.4822 28.1725 12.1387 28.0828 12.7828Z" fill="black" fill-opacity="0.7"/>
<defs>
<clipPath id="bgblur_0_7806_1737_clip_path" transform="translate(5 5)"><path d="M35.8783 9.12163L33.7752 24.393C33.7228 25.1999 33.4987 25.9856 33.1183 26.696C32.738 27.4065 32.2105 28.0247 31.5722 28.508C31.4918 28.5646 31.398 28.5982 31.3004 28.6053C31.2029 28.6124 31.1053 28.5927 31.0179 28.5483C30.9304 28.5039 30.8563 28.4364 30.8034 28.3529C30.7504 28.2694 30.7206 28.173 30.7169 28.0738V12.7828C30.8077 11.7858 30.681 10.7808 30.346 9.83912C30.0109 8.89747 29.4756 8.04237 28.7782 7.33463C28.0808 6.6269 27.2385 6.08391 26.311 5.74429C25.3836 5.40467 24.3938 5.27676 23.4122 5.36966H6.91697C6.3912 5.36966 6.37893 4.88909 6.41573 4.67551C6.56369 3.22763 7.26308 1.89585 8.3646 0.964464C8.98652 0.541114 9.68561 0.248517 10.4207 0.103926C11.1557 -0.0406642 11.9118 -0.0343206 12.6444 0.122583L31.1533 2.7568C31.9025 2.81214 32.6332 3.01924 33.3023 3.36588C33.9714 3.71253 34.5654 4.19171 35.0493 4.77518C35.467 5.4064 35.7556 6.11637 35.898 6.863C36.0404 7.60962 36.0337 8.37769 35.8783 9.12163ZM28.0828 12.7828V28.2108C28.1731 28.8552 28.1146 29.5122 27.9119 30.1297C27.7092 30.7472 27.3678 31.3083 26.9147 31.7688C26.4617 32.2292 25.9094 32.5764 25.3015 32.7827C24.6936 32.9891 24.0468 33.049 23.4122 32.9577H4.71574C4.08079 33.05 3.43341 32.9908 2.82489 32.7848C2.21637 32.5789 1.66344 32.2319 1.20989 31.7713C0.756341 31.3106 0.414642 30.7491 0.211863 30.1311C0.00908483 29.5131 -0.0492014 28.8556 0.0416223 28.2108V12.7828C-0.0485967 12.1383 0.0101421 11.4812 0.21319 10.8637C0.416239 10.2462 0.758023 9.68509 1.21149 9.2249C1.66497 8.76471 2.21768 8.41802 2.82589 8.21227C3.4341 8.00652 4.08112 7.94736 4.71574 8.03947H23.4122C24.0465 7.94836 24.6929 8.00824 25.3005 8.2144C25.9081 8.42056 26.4602 8.76734 26.9131 9.22736C27.3661 9.68739 27.7076 10.2481 27.9106 10.8651C28.1136 11.4822 28.1725 12.1387 28.0828 12.7828Z"/>
</clipPath></defs>
</svg>
